<?xml version="1.0" standalone="no"?>
<!DOCTYPE svg PUBLIC "-//W3C//DTD SVG 20010904//EN"
 "http://www.w3.org/TR/2001/REC-SVG-20010904/DTD/svg10.dtd">
<svg version="1.0" xmlns="http://www.w3.org/2000/svg"
 width="1024.000000pt" height="1024.000000pt" viewBox="0 0 1024.000000 1024.000000"
 preserveAspectRatio="xMidYMid meet">

<g transform="translate(0.000000,1024.000000) scale(0.100000,-0.100000)"
fill="#000000" stroke="none">
<path d="M0 5120 l0 -5120 5120 0 5120 0 0 5120 0 5120 -5120 0 -5120 0 0
-5120z m5620 4716 c570 -65 1038 -200 1572 -454 286 -136 675 -385 908 -581
391 -329 747 -729 975 -1098 30 -49 58 -92 63 -98 17 -22 124 -218 185 -340
123 -248 192 -422 277 -695 256 -827 278 -1685 64 -2535 -19 -77 -60 -216 -91
-310 -112 -341 -242 -622 -463 -995 -86 -147 -357 -512 -414 -559 -18 -15
-195 -16 -224 -2 -18 9 -64 22 -182 51 -41 10 -70 19 -65 20 6 1 13 2 18 1 15
-2 6 20 -10 25 -10 3 -32 13 -50 22 -26 13 -34 13 -47 3 -14 -11 -29 0 -108
79 -105 104 -157 149 -208 176 -19 10 -42 24 -50 30 -8 7 -48 22 -88 34 -39
12 -75 26 -78 31 -3 5 -20 9 -39 9 -19 0 -36 4 -39 9 -3 4 -29 11 -57 15 -29
4 -65 14 -80 22 -15 7 -37 14 -48 14 -18 0 -19 -3 -11 -26 6 -14 10 -27 10
-30 0 -10 -29 -3 -40 11 -7 8 -20 15 -30 15 -12 0 -20 11 -24 35 -5 23 -13 35
-23 35 -9 0 -24 7 -33 15 -15 14 -18 14 -30 0 -7 -8 -19 -15 -26 -15 -9 0 -14
-12 -14 -33 0 -33 -12 -48 -65 -83 -15 -9 -33 -34 -41 -53 -16 -40 -105 -131
-127 -131 -8 0 -18 -12 -21 -26 -4 -16 -19 -30 -41 -40 -21 -8 -37 -23 -40
-37 -6 -22 -45 -47 -74 -47 -14 0 -14 -1 -1 -10 12 -8 10 -10 -8 -10 -13 0
-20 4 -17 10 3 5 -1 10 -9 10 -9 0 -15 -3 -14 -7 4 -20 -18 -44 -68 -74 -30
-18 -54 -37 -54 -42 0 -16 -63 -87 -77 -87 -8 0 -11 -4 -8 -10 4 -6 -5 -10
-20 -10 -33 0 -81 -24 -88 -45 -4 -8 -13 -15 -21 -15 -8 0 -27 -10 -43 -23
-15 -12 -45 -31 -66 -42 -21 -11 -50 -32 -65 -47 -15 -15 -35 -28 -45 -28 -10
0 -30 -13 -44 -30 -13 -16 -31 -30 -38 -30 -8 0 -21 -8 -31 -17 -9 -9 -24 -18
-33 -18 -33 -3 -66 -18 -79 -36 -7 -11 -21 -19 -31 -19 -9 0 -22 -5 -29 -12
-6 -6 -35 -13 -64 -15 -29 -2 -54 -8 -56 -13 -2 -6 -22 -10 -43 -10 -22 0 -38
4 -35 8 3 5 -19 8 -49 8 -30 -1 -55 2 -55 7 0 11 -17 8 -32 -5 -16 -16 -44
-16 -59 -1 -9 9 -18 8 -37 -5 -19 -12 -27 -13 -30 -4 -5 16 -34 16 -51 -1 -11
-10 -14 -9 -18 1 -3 6 -9 10 -14 6 -18 -11 -45 6 -63 41 -14 25 -23 32 -31 25
-7 -6 -15 -6 -23 2 -6 6 -30 11 -54 11 -23 0 -52 6 -64 13 -13 9 -33 12 -52 8
-24 -5 -33 -2 -38 10 -8 21 -30 21 -38 -1 -5 -12 -10 -13 -18 -5 -8 8 -17 8
-30 1 -14 -8 -26 -5 -50 12 -19 14 -46 22 -74 23 -33 1 -44 5 -44 17 0 24 -25
53 -39 45 -9 -6 -9 -11 -1 -21 7 -9 6 -16 -4 -24 -11 -9 -15 -7 -19 9 -3 13
-13 20 -28 20 -30 0 -120 41 -113 52 3 4 -2 11 -11 14 -9 4 -21 17 -26 30 -4
13 -24 32 -44 41 -20 9 -35 24 -35 34 0 19 -64 32 -90 19 -8 -5 -24 -1 -40 11
-14 11 -35 28 -48 37 -13 10 -23 30 -26 51 -2 20 -11 38 -22 44 -10 6 -35 25
-54 44 -19 18 -38 33 -42 33 -4 0 -8 9 -8 19 0 11 -3 21 -7 23 -13 5 -53 94
-53 116 0 11 -3 28 -6 37 -6 14 -8 14 -26 -2 -19 -17 -21 -17 -39 6 -21 26
-23 39 -10 60 6 9 2 26 -11 47 -11 19 -18 41 -14 49 3 8 0 27 -7 43 -7 17 -11
62 -9 113 3 76 6 86 25 94 23 11 38 75 18 75 -14 0 -14 37 -1 45 6 3 10 23 10
44 0 20 7 46 15 57 8 10 15 33 15 51 0 35 17 53 26 29 8 -22 24 -20 24 3 0 16
6 18 48 14 63 -5 109 -29 115 -59 3 -19 0 -24 -15 -24 -37 0 -12 -25 28 -28
21 -2 42 -9 46 -15 6 -9 11 -8 18 3 8 13 11 11 16 -8 4 -12 14 -22 23 -22 10
0 12 -3 5 -8 -18 -12 -25 -82 -9 -82 7 0 17 9 20 20 4 11 11 18 16 15 5 -4 9
0 9 7 0 7 6 2 13 -12 10 -20 21 -26 55 -28 40 -3 42 -4 42 -37 0 -18 6 -36 13
-38 6 -3 2 -6 -11 -6 -22 -1 -22 -2 -7 -31 9 -16 19 -30 24 -30 5 0 21 16 36
36 15 19 38 39 51 44 17 7 24 17 24 35 0 20 5 25 24 25 14 0 28 -4 31 -10 3
-5 21 -10 38 -10 18 0 45 -7 61 -15 15 -8 36 -15 45 -15 9 0 37 -11 63 -25 26
-14 54 -25 61 -25 8 0 17 -7 21 -15 3 -8 16 -15 30 -15 16 0 25 -7 29 -22 4
-12 4 -24 2 -27 -3 -2 -5 1 -5 7 0 17 -20 15 -42 -4 -16 -16 -22 -15 -73 4
-31 12 -53 17 -49 10 5 -8 -2 -9 -22 -4 -16 4 -38 8 -49 9 -11 0 -25 8 -31 16
-7 8 -20 12 -33 8 -17 -4 -31 4 -58 33 -27 29 -39 35 -48 27 -9 -9 -9 -16 -1
-30 15 -23 -8 -39 -46 -33 -16 3 -28 1 -28 -5 0 -6 -10 -19 -22 -28 -25 -21
-17 -41 18 -41 39 0 63 -17 57 -40 -6 -21 0 -25 57 -34 29 -5 43 -17 75 -61
22 -30 45 -55 50 -55 6 0 16 -9 23 -20 6 -11 32 -25 58 -31 45 -12 94 -49 94
-71 0 -15 115 -1 158 19 26 12 38 13 58 4 33 -15 61 -14 67 2 3 9 9 9 26 -1
25 -14 87 -16 96 -2 3 6 18 10 33 10 37 0 63 63 55 135 -4 42 -10 53 -31 63
-14 6 -36 12 -49 12 -13 0 -23 3 -23 8 0 14 -61 72 -70 67 -8 -5 -36 34 -28
39 2 1 15 10 31 19 33 21 34 34 4 48 -14 6 -30 28 -39 52 -15 41 -44 60 -57
38 -4 -6 -18 -12 -31 -13 -19 -2 -25 2 -24 15 1 9 -3 16 -10 15 -21 -4 -76 32
-81 55 -32 141 -33 139 59 135 46 -2 71 -7 71 -15 0 -6 3 -15 8 -19 4 -4 7 -3
7 3 0 16 70 25 220 27 119 1 149 -2 249 -27 63 -15 132 -36 155 -46 31 -15 76
-20 190 -25 109 -4 153 -9 165 -20 9 -8 33 -17 54 -21 35 -7 37 -6 37 18 0 35
-24 56 -71 63 -21 4 -39 10 -39 15 0 5 -13 9 -29 9 -17 0 -32 4 -35 9 -3 4
-31 11 -63 14 -55 5 -146 42 -269 111 -23 13 -66 31 -95 41 -30 9 -61 21 -69
26 -8 5 -23 12 -32 15 -10 4 -18 10 -18 15 0 12 -103 9 -118 -4 -8 -6 -48 -12
-90 -13 -74 -2 -79 -1 -117 30 -43 35 -85 57 -150 77 -54 16 -105 42 -105 52
0 4 -5 5 -11 1 -6 -3 -21 -2 -32 4 -12 6 -30 13 -40 16 -23 7 -13 26 14 26 10
0 28 5 39 10 11 6 29 14 40 20 30 15 60 12 60 -6 0 -15 2 -15 25 0 13 9 35 16
49 16 14 0 28 5 31 10 10 16 28 11 21 -6 -6 -17 7 -48 33 -74 29 -30 103 -43
208 -36 54 3 106 6 116 7 24 0 21 17 -4 21 -19 3 -19 4 -4 23 14 17 16 17 11
3 -3 -12 0 -18 10 -18 9 0 24 -10 34 -23 l19 -22 26 26 c28 28 43 93 26 118
-7 11 -17 12 -52 3 -31 -8 -47 -8 -57 0 -9 8 -16 8 -24 0 -26 -26 -38 -13 -38
38 0 47 -5 55 -32 51 -4 0 -10 8 -13 19 -4 11 -12 20 -18 20 -7 0 -18 9 -25
20 -16 26 -30 25 -54 -5 -25 -32 -47 -33 -41 -1 6 31 -29 42 -53 15 -26 -29
-34 -23 -34 27 0 42 -2 45 -17 33 -14 -12 -16 -12 -11 1 12 34 -38 70 -57 40
-14 -22 -33 -8 -38 28 -3 27 1 43 14 58 11 11 19 26 19 32 0 7 4 12 8 12 10 0
33 70 27 80 -2 4 19 5 47 2 42 -4 54 -1 65 13 17 25 17 70 -2 85 -8 7 -15 25
-15 40 0 21 -15 44 -56 85 -45 47 -54 62 -48 79 16 44 9 104 -14 129 -12 13
-22 36 -22 51 0 19 -6 29 -18 33 -10 2 -24 20 -31 39 -15 40 -26 43 -35 9 -6
-23 -25 -35 -27 -17 -5 48 -16 62 -62 79 -24 9 -27 12 -11 12 17 1 20 6 17 25
-5 25 21 86 37 86 5 0 19 18 30 40 11 22 26 40 33 40 27 1 80 77 75 108 -3 17
10 37 45 70 9 9 17 22 17 30 0 7 7 15 15 18 8 4 15 14 15 23 0 29 32 116 47
124 7 4 13 21 13 37 0 16 5 32 10 35 6 3 10 19 10 35 0 16 9 45 21 64 11 20
29 70 39 113 18 73 20 134 8 298 0 11 2 36 6 56 5 28 1 49 -18 91 -17 36 -23
65 -20 86 3 19 1 32 -5 32 -6 0 -11 5 -11 12 0 6 -7 19 -15 28 -13 14 -12 21
7 60 14 28 18 45 11 47 -14 5 -7 143 7 157 6 6 10 18 10 28 0 28 -37 22 -70
-12 -16 -17 -34 -30 -40 -30 -13 0 -13 37 0 45 6 3 10 21 10 40 0 19 -4 37
-10 40 -6 4 -10 -8 -11 -27 0 -33 0 -33 -16 -10 -18 26 -33 29 -33 6 0 -8 -4
-12 -10 -9 -5 3 -10 16 -10 28 0 22 -29 51 -110 111 -44 32 -79 42 -91 24 -3
-5 -23 0 -43 11 -20 12 -48 21 -61 21 -14 0 -25 3 -25 8 0 8 -64 38 -106 48
-27 7 -36 13 -69 42 -7 6 -21 12 -29 12 -9 0 -24 4 -34 9 -22 13 -91 26 -116
23 -11 -1 -23 3 -27 10 -7 10 -11 10 -21 0 -14 -14 -52 -16 -43 -2 3 6 -4 10
-17 10 -18 0 -20 -2 -8 -10 13 -8 12 -10 -2 -10 -10 0 -23 9 -30 20 -11 17
-24 20 -81 20 -45 0 -73 5 -82 14 -11 11 -39 12 -127 8 -62 -2 -114 -9 -116
-13 -2 -5 -13 -9 -24 -9 -25 0 -87 -28 -113 -51 -20 -18 -23 -19 -52 -19 -9 0
-14 -3 -10 -6 7 -7 -96 -64 -117 -64 -8 0 -17 -6 -20 -12 -5 -10 -7 -10 -12 0
-8 16 -27 16 -21 -1 7 -17 -9 -44 -20 -34 -4 5 -1 12 7 17 12 8 11 10 -5 9
-11 0 -42 -15 -69 -33 -28 -19 -56 -32 -64 -28 -12 4 -14 1 -9 -12 5 -12 -2
-25 -23 -43 -18 -15 -30 -34 -30 -49 0 -14 -7 -27 -15 -30 -9 -4 -15 -19 -15
-40 0 -29 4 -34 23 -34 22 0 22 0 -4 -23 -25 -21 -37 -50 -45 -107 -1 -13 -8
-26 -13 -28 -15 -5 -14 -18 5 -36 14 -15 14 -16 -3 -16 -16 0 -18 -6 -15 -36
3 -20 0 -39 -5 -43 -6 -3 -13 -20 -16 -37 -5 -26 -2 -33 16 -42 12 -6 16 -11
10 -11 -9 -1 -13 -17 -13 -45 0 -38 5 -48 33 -72 17 -15 31 -31 29 -36 -1 -5
9 -6 23 -2 18 4 25 2 25 -9 0 -8 7 -17 15 -21 8 -3 15 -15 15 -26 0 -11 4 -20
10 -20 5 0 15 -18 21 -40 11 -37 39 -56 39 -27 0 8 3 9 8 1 4 -6 24 -14 45
-18 20 -4 37 -11 37 -16 0 -5 18 -14 40 -20 24 -6 40 -17 40 -25 0 -11 13 -15
50 -15 32 0 77 -11 125 -30 42 -16 86 -30 98 -30 12 0 33 -7 46 -16 21 -15
111 -31 212 -39 20 -1 41 -5 47 -9 16 -9 235 3 245 13 5 5 36 7 68 4 48 -5 63
-2 79 12 10 9 33 18 51 20 17 1 36 10 41 19 13 23 34 20 53 -6 13 -19 17 -21
25 -8 5 8 11 12 13 10 4 -5 -5 -78 -18 -160 -7 -42 26 -105 50 -96 12 4 15 -4
15 -39 0 -38 -3 -45 -19 -45 -16 0 -20 -11 -26 -80 -4 -44 -11 -80 -15 -80 -4
0 -10 -19 -13 -42 -8 -67 -35 -151 -52 -161 -8 -4 -15 -15 -15 -23 0 -8 -6
-23 -12 -34 -11 -17 -10 -22 2 -31 12 -8 11 -9 -5 -7 -14 2 -20 -3 -21 -17 -2
-24 -50 -122 -65 -130 -5 -4 -19 -28 -30 -53 -11 -26 -27 -61 -36 -79 -9 -18
-13 -39 -10 -47 4 -9 2 -16 -4 -16 -16 0 10 -140 31 -165 5 -6 12 -42 16 -79
6 -55 11 -70 26 -73 20 -6 24 -18 8 -28 -14 -9 -12 -25 3 -25 28 0 49 -38 53
-95 5 -68 -16 -95 -73 -95 -23 0 -33 -3 -25 -8 13 -9 -74 -52 -103 -52 -8 0
-15 -7 -15 -15 0 -23 -17 -18 -23 7 -5 18 -8 19 -21 8 -9 -7 -16 -21 -16 -32
0 -11 -5 -18 -12 -15 -7 2 -21 0 -31 -5 -10 -5 -24 -5 -35 1 -12 7 -22 5 -36
-7 -16 -15 -45 -22 -91 -21 -101 2 -129 -1 -136 -12 -3 -6 -26 -10 -50 -11
-24 0 -47 -5 -51 -12 -6 -8 -8 -7 -8 2 0 21 -26 13 -39 -11 -7 -13 -11 -33
-10 -43 2 -10 -2 -29 -9 -41 -19 -35 -26 -187 -10 -204 23 -25 38 -58 38 -83
0 -44 -12 -86 -25 -86 -7 0 -16 -15 -19 -33 -3 -19 -15 -43 -27 -55 -20 -23
-67 -29 -84 -13 -6 5 -25 11 -44 13 -19 2 -36 9 -37 16 -1 7 0 8 3 2 2 -5 13
-10 24 -10 16 0 17 3 7 19 -7 11 -15 18 -18 16 -10 -6 -40 34 -40 54 0 10 -9
21 -20 24 -12 3 -20 14 -20 26 0 17 -6 21 -32 22 -18 0 -27 3 -20 6 25 10 12
40 -28 59 -25 12 -40 26 -40 37 0 20 -52 77 -69 77 -21 0 -11 38 12 44 21 7
21 7 2 15 -11 5 -26 6 -32 4 -7 -3 -13 1 -13 9 0 8 -6 23 -14 34 -12 15 -17
17 -27 6 -17 -16 -29 -15 -29 1 0 7 -15 19 -33 26 -23 9 -36 23 -43 47 -7 20
-7 35 -2 36 6 2 3 19 -5 38 -8 19 -21 54 -28 78 -7 23 -18 42 -26 42 -7 0 -13
5 -13 10 0 6 4 10 9 10 5 0 11 8 15 18 3 9 9 23 12 30 4 7 -2 12 -15 12 -12 0
-21 -5 -21 -12 0 -6 -9 -2 -20 10 -11 12 -20 35 -20 52 0 26 -4 30 -26 30 -14
0 -23 4 -20 9 3 4 16 6 30 4 28 -6 40 9 32 42 -5 20 -16 24 -43 16 -13 -4 -17
4 -15 28 2 21 -4 34 -21 48 -20 15 -25 31 -31 87 -8 80 -10 86 -35 79 -15 -4
-19 3 -25 44 -6 41 -4 50 14 65 11 9 20 26 20 37 0 19 -4 21 -39 15 l-40 -6
-3 58 c-2 49 -6 59 -21 58 -18 -2 -34 37 -23 55 4 5 2 28 -3 50 -6 30 -5 43 4
51 21 17 33 -15 27 -73 -4 -43 -2 -50 9 -39 15 14 89 16 89 2 0 -5 5 -10 10
-10 6 0 10 9 10 21 0 11 -4 17 -10 14 -5 -3 -10 -2 -10 4 0 6 -6 8 -14 5 -9
-3 -17 6 -24 25 -7 19 -7 31 -1 31 5 0 9 18 9 40 0 38 -1 40 -31 40 -18 0 -37
-7 -43 -16 -11 -14 -13 -14 -25 0 -12 14 -10 16 8 16 12 0 21 6 21 14 0 20
-17 29 -23 14 -2 -7 -8 -10 -12 -5 -11 9 27 45 41 40 12 -4 28 26 19 35 -3 3
-5 0 -5 -6 0 -7 -7 -12 -15 -12 -8 0 -15 7 -15 15 0 25 -23 65 -37 65 -7 0
-13 9 -13 19 0 14 5 18 19 14 10 -3 22 0 26 7 9 15 -15 42 -33 35 -12 -4 -13
14 -8 127 3 73 10 153 16 178 6 25 13 65 16 90 13 122 40 261 71 360 3 8 6 29
9 45 2 17 6 41 9 55 19 89 10 131 -25 110 -9 -6 -22 -2 -38 11 -29 23 -58 25
-66 4 -3 -8 -16 -15 -28 -15 -50 0 -63 -4 -81 -27 -10 -12 -27 -23 -37 -23
-31 0 -47 -37 -70 -170 -28 -159 -41 -371 -28 -475 5 -44 15 -134 23 -200 30
-265 36 -300 51 -311 16 -12 20 -39 4 -29 -6 3 -10 1 -10 -4 0 -6 6 -11 13
-11 12 0 30 42 45 104 6 23 10 26 18 15 6 -8 11 -31 11 -52 1 -21 6 -43 11
-50 6 -7 8 -45 6 -87 -6 -100 -5 -169 0 -200 3 -14 3 -19 0 -12 -9 19 -32 14
-39 -8 -7 -23 -16 -25 -33 -8 -9 9 -12 8 -12 -5 0 -9 7 -17 15 -17 15 0 19
-10 16 -40 -1 -8 12 -24 28 -35 16 -10 34 -30 40 -42 12 -26 45 -30 67 -9 13
13 49 11 58 -3 8 -12 8 -245 1 -278 -7 -32 -6 -33 25 -33 28 0 31 -2 20 -15
-7 -9 -19 -14 -26 -11 -23 9 -26 -13 -4 -26 26 -17 25 -26 -7 -54 -22 -19 -26
-30 -25 -67 1 -25 9 -62 18 -83 9 -21 16 -54 16 -74 0 -39 13 -71 35 -83 9 -6
11 -13 5 -20 -18 -23 -20 -45 -8 -68 27 -54 56 -149 57 -190 2 -45 27 -119 41
-119 5 0 8 -11 8 -24 0 -24 24 -90 66 -181 13 -27 26 -70 29 -95 5 -40 3 -49
-24 -81 -29 -35 -180 -118 -244 -134 -15 -4 -30 -11 -33 -16 -3 -5 -16 -9 -28
-9 -13 0 -43 -9 -68 -20 -24 -10 -63 -22 -86 -26 -23 -4 -45 -11 -48 -15 -3
-5 -18 -9 -34 -9 -15 0 -30 -3 -32 -7 -4 -9 -120 -52 -161 -60 -15 -3 -27 -9
-27 -14 0 -5 -11 -9 -25 -9 -14 0 -33 -4 -43 -9 -9 -5 -55 -21 -102 -36 -47
-14 -93 -30 -102 -35 -10 -6 -24 -10 -33 -10 -37 0 -373 -135 -427 -172 l-26
-18 -84 113 c-215 288 -315 449 -452 726 -102 206 -177 388 -246 598 -225 683
-290 1365 -199 2087 11 88 22 162 24 165 1 3 10 49 19 101 48 275 178 697 305
988 52 118 177 364 235 462 24 41 58 98 74 125 29 50 220 331 247 363 8 9 44
55 81 102 181 229 454 504 684 690 30 25 57 47 60 50 3 3 32 25 65 50 33 25
62 48 65 51 10 12 288 196 370 245 240 143 405 224 680 333 466 186 938 291
1465 325 129 8 606 -4 735 -18z m-1566 -3363 c11 -11 106 -10 106 1 0 6 5 5
12 -2 7 -7 31 -12 55 -12 28 0 46 -5 49 -14 3 -8 20 -17 39 -20 18 -4 38 -13
45 -21 7 -8 19 -15 26 -15 8 0 32 -18 53 -39 22 -22 41 -39 43 -38 2 1 -5 -6
-17 -17 -19 -17 -36 -18 -280 -12 -259 6 -310 10 -299 27 3 5 0 9 -5 9 -6 0
-11 18 -11 39 0 35 3 40 31 50 18 6 44 12 58 12 24 2 24 2 4 6 -36 7 -27 21
17 28 22 4 42 11 46 16 6 11 18 12 28 2z m1046 -38 c0 -8 -2 -15 -4 -15 -2 0
-6 7 -10 15 -3 8 -1 15 4 15 6 0 10 -7 10 -15z m-760 -215 c0 -5 16 -10 35
-10 19 0 35 -3 35 -7 1 -5 3 -24 5 -43 4 -25 -1 -42 -14 -60 -18 -22 -23 -23
-40 -12 -12 6 -34 12 -50 12 -17 0 -33 5 -36 10 -3 6 -2 10 4 10 5 0 5 12 -2
30 -14 36 -25 39 -22 5 3 -23 0 -25 -34 -25 -23 0 -38 5 -38 13 0 6 -4 20 -8
29 -5 12 -2 19 9 23 9 3 24 8 34 11 9 4 35 8 56 10 22 2 42 6 44 9 9 9 22 5
22 -5z m110 -40 c0 -5 -4 -10 -10 -10 -5 0 -10 5 -10 10 0 6 5 10 10 10 6 0
10 -4 10 -10z m10 -40 c0 -11 -4 -20 -9 -20 -11 0 -22 26 -14 34 12 12 23 5
23 -14z m-1263 -52 c-3 -8 -6 -5 -6 6 -1 11 2 17 5 13 3 -3 4 -12 1 -19z
m1098 -88 c-3 -5 0 -10 7 -10 7 0 19 -9 26 -20 10 -17 10 -21 -4 -27 -11 -4
-22 1 -30 12 -17 22 -18 55 -3 55 5 0 7 -4 4 -10z m248 -68 c18 -9 46 -29 62
-45 16 -15 33 -27 37 -27 5 0 8 -8 8 -17 0 -15 -10 -18 -57 -20 -32 -1 -88 -5
-125 -8 l-67 -7 23 44 c12 23 26 55 30 71 8 33 39 36 89 9z m1 -179 c4 -5 13
-8 19 -8 5 0 12 -5 14 -11 5 -15 -24 -22 -71 -16 l-39 5 24 18 c26 20 41 23
53 12z m196 -82 c0 -3 -4 -12 -9 -19 -6 -10 -10 -7 -13 11 -4 18 -1 24 9 20 7
-3 13 -8 13 -12z m-385 -11 c3 -5 -3 -10 -15 -10 -12 0 -18 5 -15 10 3 6 10
10 15 10 5 0 12 -4 15 -10z m-1805 -600 c11 17 13 0 4 -24 -5 -13 -8 -13 -20
-1 -8 7 -14 24 -13 37 l0 23 10 -25 c8 -20 12 -22 19 -10z m2150 -295 c0 -20
18 -19 22 1 5 26 58 -63 58 -97 0 -16 5 -29 10 -29 6 0 10 -7 10 -15 0 -9 9
-15 21 -15 18 0 20 -4 14 -27 -4 -16 -7 -28 -8 -28 -1 0 -16 -10 -33 -22 -33
-23 -91 -32 -113 -18 -10 6 -19 2 -30 -14 -23 -35 -24 -80 -1 -108 11 -14 20
-34 20 -45 0 -24 -28 -35 -49 -19 -9 6 -28 17 -43 24 -21 8 -28 18 -28 39 0
14 -5 39 -10 54 -8 21 -8 29 2 36 10 6 7 10 -10 14 -21 6 -22 10 -16 73 4 42
12 71 23 81 9 8 23 28 31 44 8 16 27 33 42 38 16 6 28 16 28 23 0 13 17 21 48
24 6 0 12 -6 12 -14z m-2060 -270 c0 -17 -5 -25 -17 -24 -11 0 -13 3 -5 6 6 2
12 13 12 24 0 10 2 19 5 19 3 0 5 -11 5 -25z m105 -42 c-21 -32 -30 -19 -15
22 8 21 14 25 22 17 8 -8 6 -18 -7 -39z m130 -182 c7 -12 -12 -24 -25 -16 -11
7 -4 25 10 25 5 0 11 -4 15 -9z m52 -125 c-5 -17 -27 -18 -27 -2 0 9 -4 16
-10 16 -5 0 -10 7 -10 15 0 14 3 13 25 -2 13 -10 23 -22 22 -27z m-17 -51 c0
-8 -7 -15 -15 -15 -16 0 -20 12 -8 23 11 12 23 8 23 -8z m23 -120 c-7 -21 -13
-19 -13 6 0 11 4 18 10 14 5 -3 7 -12 3 -20z m1671 11 c-8 -22 -34 -28 -50
-12 -12 13 -11 15 8 19 42 8 47 7 42 -7z m-1666 -154 c2 -7 -3 -12 -12 -12 -9
0 -16 7 -16 16 0 17 22 14 28 -4z m-61 -54 c-3 -8 -6 -5 -6 6 -1 11 2 17 5 13
3 -3 4 -12 1 -19z m2213 -27 c0 -6 -4 -13 -10 -16 -5 -3 -10 1 -10 9 0 9 5 16
10 16 6 0 10 -4 10 -9z m-130 -116 c0 -8 -7 -15 -16 -15 -14 0 -14 3 -4 15 7
8 14 15 16 15 2 0 4 -7 4 -15z m235 -405 c3 -5 -1 -10 -10 -10 -9 0 -13 5 -10
10 3 6 8 10 10 10 2 0 7 -4 10 -10z m-282 -67 c4 -20 14 -44 23 -54 9 -11 14
-19 9 -19 -4 0 -3 -6 3 -12 14 -19 0 -98 -18 -98 -20 0 -60 44 -60 66 0 15 -6
24 -15 24 -8 0 -15 5 -15 11 0 6 7 8 16 5 14 -5 15 1 9 51 -6 56 -6 58 18 59
21 2 26 -4 30 -33z m124 -373 c2 -25 -16 -37 -28 -19 -6 9 -3 18 8 27 9 6 17
12 18 12 0 0 1 -9 2 -20z m103 0 c0 -5 -4 -10 -10 -10 -5 0 -10 5 -10 10 0 6
5 10 10 10 6 0 10 -4 10 -10z m1652 -789 c-2 -23 -8 -41 -13 -41 -5 0 -9 -7
-9 -14 0 -8 -11 -36 -25 -62 -14 -26 -25 -51 -25 -55 0 -4 -13 -31 -30 -59
-16 -28 -33 -62 -36 -75 -3 -14 -9 -25 -14 -25 -4 0 -17 -21 -30 -47 -13 -27
-33 -61 -45 -78 -11 -16 -34 -53 -51 -81 -17 -29 -36 -58 -43 -65 -44 -54 -61
-78 -61 -88 0 -6 -4 -11 -10 -11 -5 0 -10 -4 -10 -9 0 -6 -11 -22 -25 -37 -14
-15 -25 -31 -25 -36 0 -5 -6 -16 -12 -23 -7 -8 -26 -30 -43 -50 -86 -104 -143
-169 -237 -268 -32 -33 -58 -63 -58 -66 0 -3 -16 -19 -35 -35 -19 -16 -35 -35
-35 -41 0 -6 -22 -28 -50 -49 -28 -21 -50 -46 -50 -56 0 -25 -16 -34 -24 -13
-6 14 -8 14 -20 -3 -11 -14 -11 -21 -3 -27 8 -6 6 -7 -4 -4 -9 3 -25 0 -35 -8
-28 -19 -194 -34 -430 -39 -188 -3 -194 -3 -59 4 83 4 154 8 159 9 4 0 0 9
-11 19 -10 9 -13 13 -6 8 10 -6 12 -5 7 7 -8 21 -34 30 -34 12 0 -8 1 -18 3
-22 2 -9 -76 -23 -83 -16 -3 3 1 8 9 11 10 3 10 6 1 12 -7 4 -13 19 -13 34 -2
23 -6 26 -39 26 -34 0 -38 3 -38 25 0 23 -4 25 -40 25 -28 0 -40 4 -40 14 0 8
5 16 12 18 9 3 9 26 1 94 -12 94 -9 112 12 94 10 -8 15 -6 20 9 3 11 19 33 36
48 16 15 29 38 29 50 0 13 6 23 15 23 8 0 28 20 45 45 32 46 75 80 64 50 -5
-12 1 -15 27 -14 31 0 32 1 12 9 -26 11 -27 14 -12 42 11 21 12 21 26 2 14
-18 15 -18 27 -1 13 16 14 16 20 1 5 -13 9 -15 18 -6 7 7 20 12 29 12 10 0 21
9 24 20 3 11 13 20 21 20 8 0 14 8 14 18 0 11 9 27 20 37 20 18 20 18 14 -16
-3 -19 -7 -40 -10 -46 -6 -21 122 -18 130 3 10 25 7 41 -9 57 -12 13 -10 15
16 21 17 3 34 4 38 1 4 -2 14 11 21 30 13 32 17 35 57 35 41 0 44 -1 41 -26
-4 -35 18 -42 26 -9 4 15 11 23 17 19 6 -4 16 0 21 7 8 11 11 11 15 1 4 -9 10
-7 22 7 10 12 21 18 25 14 3 -3 6 3 6 15 0 26 18 39 26 17 5 -12 9 -13 20 -4
8 6 14 8 14 3 0 -4 6 1 14 11 11 16 11 21 0 33 -23 22 12 112 37 96 13 -8 92
33 118 61 13 14 37 29 53 32 15 3 28 9 28 14 0 5 9 9 19 9 11 0 22 8 25 18 4
10 21 25 38 33 17 8 39 28 47 46 15 30 62 59 75 46 10 -10 36 19 36 38 0 11
10 23 23 28 13 5 24 16 24 23 0 25 46 79 57 68 17 -17 25 -12 46 29 23 46 58
75 75 61 6 -5 9 -27 7 -49z m-2442 24 c7 -9 10 -18 7 -22 -8 -7 -37 15 -37 28
0 14 16 11 30 -6z m1325 -745 c3 -6 -1 -7 -9 -4 -18 7 -21 14 -7 14 6 0 13 -4
16 -10z m-35 -46 c0 -8 -4 -14 -10 -14 -5 0 -10 9 -10 21 0 11 5 17 10 14 6
-3 10 -13 10 -21z m-435 -184 c3 -5 -1 -10 -10 -10 -9 0 -13 5 -10 10 3 6 8
10 10 10 2 0 7 -4 10 -10z m-85 -130 c0 -5 -9 -10 -20 -10 -11 0 -20 5 -20 10
0 6 9 10 20 10 11 0 20 -4 20 -10z m0 -90 c0 -17 -7 -20 -40 -20 -33 0 -40 3
-40 20 0 17 7 20 40 20 33 0 40 -3 40 -20z m0 -46 c0 -17 -22 -14 -28 4 -2 7
3 12 12 12 9 0 16 -7 16 -16z"/>
<path d="M5755 9670 c-11 -4 -76 -8 -144 -9 -68 -1 -132 -6 -141 -11 -10 -5
-50 -12 -91 -15 -40 -3 -76 -10 -80 -16 -4 -6 -12 -8 -18 -5 -18 12 -175 -15
-184 -31 -7 -12 -12 -12 -32 1 -22 14 -30 14 -89 -4 -37 -12 -71 -29 -80 -41
-10 -15 -15 -17 -20 -7 -4 9 -10 7 -22 -9 -9 -13 -23 -23 -31 -23 -14 0 -93
-39 -103 -51 -13 -16 -130 -45 -145 -36 -22 12 -65 0 -65 -18 0 -12 -5 -10
-20 5 -24 24 -40 26 -40 5 0 -9 -11 -20 -24 -25 -13 -5 -26 -15 -28 -22 -3 -8
-20 -13 -43 -13 -27 0 -41 -5 -49 -20 -6 -11 -14 -22 -17 -25 -3 -3 -11 -14
-18 -25 -11 -18 -12 -17 -8 13 5 41 -13 42 -51 3 -15 -15 -60 -40 -99 -55 -40
-15 -73 -32 -73 -37 0 -6 -5 -7 -11 -4 -11 8 -83 -39 -102 -65 -7 -10 -32 -26
-57 -37 -25 -12 -99 -67 -165 -123 -131 -110 -185 -164 -185 -183 0 -7 -16
-30 -35 -51 -19 -22 -40 -52 -47 -68 -7 -15 -16 -28 -20 -28 -5 0 -8 -14 -8
-32 0 -36 -55 -128 -76 -128 -8 0 -14 -9 -14 -20 0 -11 -12 -39 -27 -63 -54
-83 -153 -279 -153 -302 0 -8 -4 -15 -9 -15 -5 0 -11 -15 -14 -32 -3 -18 -13
-60 -22 -93 -33 -121 -37 -141 -42 -207 -3 -38 -8 -68 -12 -68 -4 0 -8 -41 -9
-92 -2 -51 -9 -124 -16 -163 -8 -38 -19 -122 -26 -185 -6 -63 -15 -131 -20
-150 -5 -19 -11 -84 -14 -145 -3 -60 -9 -158 -12 -216 -5 -75 -3 -108 5 -113
16 -10 14 -26 -5 -26 -11 0 -14 -6 -8 -22 4 -13 10 -25 14 -28 4 -3 9 -12 12
-20 3 -9 10 3 17 28 7 23 9 47 6 52 -4 6 8 13 24 16 21 5 33 14 37 29 3 13 21
36 40 51 19 16 34 35 34 41 0 7 5 13 10 13 6 0 10 7 10 15 0 8 9 19 20 25 11
6 43 47 72 90 28 44 55 80 59 80 5 0 9 7 9 15 0 8 9 19 20 25 11 6 20 16 20
23 0 7 14 20 31 30 24 13 35 15 45 6 8 -6 11 -15 8 -20 -10 -16 6 -48 22 -42
7 3 14 0 14 -6 0 -15 40 -14 41 2 0 6 5 2 11 -10 12 -24 61 -33 73 -13 3 6 1
10 -5 10 -6 0 -8 5 -5 10 3 6 19 10 35 10 16 0 35 8 42 18 9 12 28 17 64 18
29 0 60 7 73 16 13 9 30 14 37 11 10 -4 14 4 14 26 0 21 5 31 15 31 18 0 21
60 5 76 -15 15 -1 44 19 44 10 0 23 11 29 25 20 43 15 55 -21 55 -43 0 -53 19
-62 118 -4 45 -11 82 -16 82 -5 0 -9 18 -9 40 0 33 -3 40 -20 40 -11 0 -20 5
-20 10 0 6 -7 10 -15 10 -8 0 -15 7 -15 15 0 8 5 15 11 15 23 0 80 33 69 40
-8 5 -6 11 5 20 11 9 15 9 15 1 0 -7 9 -3 21 8 21 19 20 61 -2 61 -14 0 -11
27 5 33 19 7 26 -1 26 -30 0 -12 4 -23 8 -23 10 0 32 45 32 65 0 11 12 15 40
15 22 0 40 -4 40 -10 0 -5 13 -10 29 -10 19 0 35 -8 44 -20 14 -20 15 -20 27
9 6 16 20 37 31 47 10 9 16 20 14 25 -3 4 0 11 6 15 8 4 9 3 5 -4 -11 -18 14
-14 54 8 l35 19 -38 1 -39 0 31 26 c17 14 31 30 31 36 0 5 10 18 23 28 18 15
20 21 10 31 -25 25 -16 42 18 35 24 -5 32 -2 35 12 5 16 55 52 75 52 5 0 9 -6
9 -14 0 -8 6 -16 14 -19 9 -4 15 4 18 23 3 16 0 31 -6 33 -6 2 12 7 41 11 29
4 57 5 63 1 5 -3 13 1 16 9 3 9 10 14 14 11 5 -3 11 -1 15 5 3 5 14 10 24 10
10 0 28 11 40 24 13 14 29 22 37 19 8 -3 14 0 14 6 0 10 28 9 68 -1 17 -5 52
15 52 29 0 11 6 14 25 9 17 -4 41 2 74 19 35 17 51 21 54 12 3 -9 9 -9 27 1
16 10 25 11 33 3 6 -6 28 -11 49 -11 25 0 47 -7 61 -20 14 -14 30 -19 44 -15
12 3 25 1 28 -5 11 -18 33 -10 39 14 4 16 13 24 25 23 15 -1 17 -5 11 -23 -10
-24 -4 -34 18 -34 8 0 21 -8 28 -17 11 -17 15 -16 61 7 26 13 51 26 54 28 4 1
4 -8 2 -22 -4 -21 -2 -24 16 -19 12 3 21 9 21 13 0 16 29 18 56 4 20 -10 30
-12 32 -4 3 8 8 8 18 -1 11 -9 20 -8 39 5 22 14 25 15 25 1 0 -8 -5 -15 -12
-15 -9 0 -9 -3 0 -12 6 -6 48 -13 92 -16 67 -4 84 -2 100 13 24 22 89 26 112
7 14 -12 38 -14 104 -9 48 3 89 9 93 14 8 13 52 36 57 30 6 -6 -20 -33 -44
-46 -9 -5 -14 -13 -10 -16 9 -10 107 14 121 29 8 9 26 10 66 4 59 -10 103 -5
124 12 44 37 91 70 101 70 20 0 13 -68 -9 -85 -19 -15 -18 -16 15 -10 19 3 52
7 72 8 24 2 45 11 59 26 l22 24 8 -22 c9 -23 24 -27 34 -10 6 9 125 10 125 1
0 -1 -9 -12 -20 -24 -24 -26 -19 -35 30 -48 22 -6 40 -15 40 -20 0 -6 20 -10
45 -10 25 0 45 -4 45 -9 0 -4 30 -11 66 -14 40 -4 74 -13 85 -23 9 -8 35 -18
56 -21 29 -4 46 -15 73 -49 21 -26 44 -43 57 -43 12 -1 27 -10 33 -20 5 -11
18 -22 29 -26 10 -3 24 -19 31 -35 7 -17 19 -30 26 -30 8 0 14 -8 14 -18 0
-12 13 -23 37 -31 20 -8 41 -18 47 -22 99 -81 126 -105 126 -116 0 -7 8 -13
18 -13 24 -1 52 -24 52 -44 0 -10 5 -14 10 -11 6 3 10 -1 10 -9 0 -9 23 -60
51 -113 28 -54 58 -111 67 -128 8 -16 18 -32 22 -35 13 -9 17 -59 6 -64 -7 -3
-4 -10 7 -19 9 -8 17 -19 17 -26 0 -6 6 -11 14 -11 8 0 16 -6 19 -12 3 -7 2 6
0 30 -5 38 -4 42 16 42 19 0 26 -11 21 -35 -1 -5 -2 -18 -3 -27 -1 -10 -5 -18
-9 -18 -4 0 -8 -7 -8 -16 0 -15 -2 -15 -25 0 -32 21 -35 20 -35 -9 0 -16 6
-25 15 -25 9 0 15 -9 15 -22 0 -37 40 -108 61 -108 10 0 19 5 19 10 0 6 -3 10
-7 10 -5 0 -9 25 -11 55 -2 34 1 55 8 55 5 0 10 9 10 19 0 11 5 23 10 26 12 8
13 85 1 85 -5 0 -14 14 -20 31 -10 28 -13 30 -46 25 -35 -6 -35 -6 -35 31 0
37 0 37 16 15 15 -21 43 -30 45 -14 1 4 3 18 5 32 1 14 8 45 14 70 6 25 12 61
14 81 2 20 6 41 10 47 3 6 2 14 -4 17 -8 5 -8 11 0 20 16 20 -2 247 -20 253
-6 2 -10 26 -10 53 0 31 4 48 10 44 17 -10 11 11 -10 38 -11 14 -20 32 -20 39
0 8 -14 27 -31 42 -18 16 -28 34 -25 44 2 9 7 34 11 55 5 34 4 37 -19 37 -39
0 -42 20 -8 51 40 36 40 48 2 56 -24 4 -28 8 -19 19 6 8 15 12 19 9 4 -2 17 9
29 26 22 29 48 31 37 2 -3 -8 -1 -11 4 -8 14 9 12 47 -4 68 -16 21 -26 22 -26
1 0 -8 -4 -13 -9 -10 -5 3 -12 -4 -16 -17 l-8 -22 -4 24 c-3 13 5 42 18 66 22
42 22 43 5 99 -13 42 -23 56 -37 56 -23 0 -43 31 -60 90 -7 25 -18 52 -26 61
-7 8 -13 23 -13 32 0 9 -12 29 -26 44 -15 15 -31 40 -36 56 -8 22 -16 27 -43
27 -34 0 -47 15 -49 55 -1 16 -7 19 -33 17 -23 -2 -33 1 -33 10 0 24 -50 69
-70 63 -13 -4 -22 2 -32 22 -8 17 -21 27 -32 26 -10 0 -26 7 -37 18 -10 10
-25 16 -34 13 -9 -4 -31 11 -60 41 -25 25 -54 47 -65 48 -10 1 -16 5 -14 9 3
4 -2 8 -10 8 -9 0 -26 11 -38 25 -13 16 -32 25 -50 25 -15 0 -28 5 -28 10 0 6
-5 10 -11 10 -6 0 -17 7 -25 15 -9 8 -29 15 -45 15 -16 0 -29 5 -29 11 0 6 -8
8 -19 4 -13 -4 -23 0 -29 11 -7 13 -13 14 -31 4 -17 -9 -26 -9 -37 0 -7 7 -20
10 -28 7 -7 -3 -26 8 -42 24 -16 16 -43 31 -63 35 -20 3 -41 11 -46 18 -26 29
-93 54 -145 55 -30 0 -82 6 -115 13 -33 6 -84 11 -112 10 -32 -1 -53 3 -53 9
0 7 -13 9 -37 5 -61 -11 -76 -9 -118 9 -56 25 -124 44 -162 45 -17 0 -54 5
-82 12 -38 8 -60 9 -88 0 -21 -6 -41 -8 -47 -3 -6 5 -20 5 -31 1z m-1428 -352
c-3 -8 -6 -5 -6 6 -1 11 2 17 5 13 3 -3 4 -12 1 -19z m3610 -910 c-3 -8 -6 -5
-6 6 -1 11 2 17 5 13 3 -3 4 -12 1 -19z m-4107 -624 c0 -8 -4 -12 -10 -9 -5 3
-10 10 -10 16 0 5 5 9 10 9 6 0 10 -7 10 -16z m-420 -649 c0 -8 5 -15 12 -15
9 0 9 -3 0 -12 -15 -15 -43 7 -35 28 7 19 23 18 23 -1z m-370 -481 c0 -9 -5
-14 -12 -12 -18 6 -21 28 -4 28 9 0 16 -7 16 -16z"/>
<path d="M4286 8043 c-11 -11 -6 -23 9 -23 8 0 15 4 15 9 0 13 -16 22 -24 14z"/>
<path d="M4320 8034 c0 -8 9 -14 19 -14 30 0 34 17 6 22 -17 4 -25 1 -25 -8z"/>
<path d="M3920 7690 c0 -5 5 -10 11 -10 5 0 7 5 4 10 -3 6 -8 10 -11 10 -2 0
-4 -4 -4 -10z"/>
<path d="M3760 7630 c0 -5 18 -10 39 -10 22 0 42 -5 44 -12 4 -10 6 -10 6 -1
1 15 -6 19 -51 27 -24 4 -38 3 -38 -4z"/>
<path d="M3840 7400 c0 -5 5 -10 10 -10 6 0 10 5 10 10 0 6 -4 10 -10 10 -5 0
-10 -4 -10 -10z"/>
<path d="M3898 7203 c7 -3 16 -2 19 1 4 3 -2 6 -13 5 -11 0 -14 -3 -6 -6z"/>
<path d="M8010 6971 c0 -11 -3 -28 -6 -38 -6 -15 -4 -15 16 4 14 13 20 28 17
37 -9 22 -27 20 -27 -3z"/>
<path d="M3492 6940 c0 -14 2 -19 5 -12 2 6 2 18 0 25 -3 6 -5 1 -5 -13z"/>
<path d="M3593 6920 c0 -25 2 -35 4 -22 2 12 2 32 0 45 -2 12 -4 2 -4 -23z"/>
<path d="M7968 6953 c7 -3 16 -2 19 1 4 3 -2 6 -13 5 -11 0 -14 -3 -6 -6z"/>
<path d="M3427 6913 c-7 -11 10 -40 18 -31 4 4 3 14 -3 24 -5 9 -12 12 -15 7z"/>
<path d="M3466 6864 c-9 -22 -8 -24 9 -24 8 0 15 9 15 20 0 24 -15 27 -24 4z"/>
<path d="M3612 6855 c0 -16 2 -22 5 -12 2 9 2 23 0 30 -3 6 -5 -1 -5 -18z"/>
<path d="M3645 6870 c-3 -5 -1 -10 4 -10 6 0 11 5 11 10 0 6 -2 10 -4 10 -3 0
-8 -4 -11 -10z"/>
<path d="M7955 6869 c4 -6 13 -8 20 -5 8 3 16 0 19 -7 2 -7 5 -4 5 6 1 12 -7
17 -25 17 -15 0 -23 -4 -19 -11z"/>
<path d="M8000 6823 c0 -13 5 -23 10 -23 13 0 13 11 0 30 -8 12 -10 11 -10 -7z"/>
<path d="M3520 6810 c0 -11 4 -20 9 -20 5 0 7 9 4 20 -3 11 -7 20 -9 20 -2 0
-4 -9 -4 -20z"/>
<path d="M2940 6490 c0 -5 5 -10 10 -10 6 0 10 5 10 10 0 6 -4 10 -10 10 -5 0
-10 -4 -10 -10z"/>
<path d="M6508 6424 c-6 -5 -47 -12 -84 -13 -14 -1 -26 -11 -34 -30 -6 -16
-18 -32 -26 -35 -8 -3 -14 -11 -13 -18 3 -28 -2 -39 -18 -36 -12 2 -18 -4 -18
-17 0 -13 -8 -21 -22 -23 -18 -3 -29 7 -50 42 -16 26 -36 46 -45 46 -22 0 -22
-2 1 -48 12 -24 17 -49 14 -70 -5 -32 -6 -33 -23 -14 -9 10 -25 34 -34 54 -10
20 -24 39 -32 42 -19 7 -30 -20 -14 -39 6 -7 11 -36 9 -62 -1 -26 4 -61 10
-76 9 -23 15 -27 34 -21 12 4 25 11 28 16 3 5 11 2 18 -6 11 -14 18 -12 51 16
32 28 45 32 101 33 35 0 76 -5 90 -11 15 -8 31 -9 39 -4 8 5 19 5 26 -1 7 -6
30 -5 64 3 42 10 54 10 58 0 2 -8 9 -9 23 -2 10 6 83 12 161 13 81 1 146 6
150 12 5 7 14 6 28 -2 11 -7 22 -13 25 -13 3 0 4 6 3 13 -4 19 66 21 85 2 9
-8 28 -16 43 -17 16 -2 29 -10 32 -20 3 -14 16 -18 56 -20 28 -1 58 -2 66 -4
8 -1 21 -2 29 -3 7 -1 11 -7 7 -16 -3 -9 0 -15 10 -15 8 0 30 -16 50 -35 31
-32 40 -35 90 -35 63 0 87 -16 87 -59 0 -20 9 -30 34 -44 42 -21 55 -21 79 1
30 27 26 101 -9 185 -7 15 -15 27 -18 27 -4 0 -9 14 -13 31 -7 34 -42 89 -57
89 -6 0 -25 11 -43 25 -18 14 -35 23 -37 21 -2 -2 -16 -6 -31 -10 -23 -5 -28
-3 -28 12 0 11 -9 27 -20 37 -20 18 -21 18 -35 -3 -9 -11 -24 -20 -35 -19 -26
2 -26 17 0 17 11 0 20 7 20 15 0 19 -11 19 -36 0 -19 -14 -43 -21 -31 -8 4 3
-3 17 -15 30 -22 24 -48 31 -48 13 0 -19 -37 -10 -64 15 -35 32 -63 32 -98 -2
-26 -25 -29 -25 -46 -10 -14 12 -37 17 -86 17 -37 0 -65 4 -62 9 6 10 -161 24
-176 15 -16 -10 -172 -4 -182 7 -11 10 -30 12 -38 3z m973 -175 c11 -5 17 -14
14 -20 -4 -5 -1 -9 5 -9 7 0 4 -7 -5 -16 -9 -9 -17 -15 -19 -13 -41 61 -40 82
5 58z m-141 -27 l-25 -5 24 -6 c34 -9 39 -30 6 -23 -14 2 -30 13 -36 23 -9 17
-6 19 23 18 28 -2 30 -2 8 -7z m75 -62 c18 -8 17 -9 -7 -9 -16 -1 -28 4 -28 9
0 12 8 12 35 0z m88 4 c9 -9 -4 -34 -18 -34 -14 0 -27 25 -18 34 4 3 12 6 18
6 6 0 14 -3 18 -6z m74 -26 c-3 -8 -6 -5 -6 6 -1 11 2 17 5 13 3 -3 4 -12 1
-19z m-117 -19 c0 -5 -4 -9 -10 -9 -5 0 -10 7 -10 16 0 8 5 12 10 9 6 -3 10
-10 10 -16z m-75 -9 c3 -5 1 -10 -4 -10 -6 0 -11 5 -11 10 0 6 2 10 4 10 3 0
8 -4 11 -10z"/>
<path d="M7095 6420 c3 -5 10 -10 16 -10 5 0 9 5 9 10 0 6 -7 10 -16 10 -8 0
-12 -4 -9 -10z"/>
<path d="M7050 6400 c0 -5 7 -10 15 -10 8 0 15 5 15 10 0 6 -7 10 -15 10 -8 0
-15 -4 -15 -10z"/>
<path d="M6080 6250 c0 -5 5 -10 10 -10 6 0 10 5 10 10 0 6 -4 10 -10 10 -5 0
-10 -4 -10 -10z"/>
<path d="M2863 6235 c-3 -9 -3 -18 -1 -21 3 -3 8 4 11 16 6 23 -1 27 -10 5z"/>
<path d="M6080 6190 c0 -5 5 -10 11 -10 5 0 7 5 4 10 -3 6 -8 10 -11 10 -2 0
-4 -4 -4 -10z"/>
<path d="M6060 6120 c0 -5 5 -10 10 -10 6 0 10 5 10 10 0 6 -4 10 -10 10 -5 0
-10 -4 -10 -10z"/>
<path d="M3054 6045 c-13 -31 -13 -39 1 -65 9 -17 20 -30 25 -30 15 0 29 35
24 57 -3 12 -1 24 5 27 6 4 11 16 11 27 0 14 -7 19 -26 19 -19 0 -28 -8 -40
-35z"/>
<path d="M2930 5970 c0 -5 7 -10 16 -10 8 0 12 5 9 10 -3 6 -10 10 -16 10 -5
0 -9 -4 -9 -10z"/>
<path d="M6295 5901 c-52 -23 -75 -49 -54 -61 11 -8 12 -13 2 -30 -7 -11 -13
-28 -13 -37 0 -14 2 -15 9 -5 7 11 9 11 14 -2 4 -10 -8 -26 -38 -47 -46 -33
-84 -79 -65 -79 5 0 10 -4 10 -10 0 -5 -6 -10 -14 -10 -8 0 -16 -7 -20 -15 -4
-11 2 -15 24 -15 17 0 30 -5 30 -12 0 -9 4 -8 10 2 6 10 10 11 10 3 0 -7 8
-13 19 -13 10 0 35 -7 54 -15 20 -8 47 -15 61 -15 13 0 26 -7 29 -15 4 -8 31
-21 62 -30 34 -10 55 -22 55 -31 0 -12 4 -12 20 -4 11 6 18 16 14 22 -5 8 8 9
42 4 27 -3 108 -9 181 -12 152 -7 148 -9 204 91 40 73 46 77 79 61 14 -8 38
-20 54 -27 36 -17 54 -52 36 -74 -10 -12 -10 -16 1 -19 8 -2 28 -9 44 -14 l30
-10 -35 -2 c-19 -1 -44 -3 -55 -4 -31 -2 -31 -40 0 -54 32 -15 56 -16 35 -2
-12 8 -8 10 15 11 46 3 70 -1 73 -11 5 -13 32 -13 32 0 0 17 43 11 87 -12 58
-31 66 -18 40 64 -16 48 -27 68 -39 68 -9 0 -19 4 -23 9 -8 14 -95 61 -112 61
-8 0 -33 16 -56 35 -22 19 -49 35 -59 35 -10 0 -18 4 -18 8 0 5 -30 19 -67 32
-38 12 -72 28 -78 34 -5 6 -23 12 -39 13 -16 0 -40 10 -55 21 -20 15 -31 17
-48 9 -16 -7 -28 -6 -45 5 -13 8 -40 14 -60 14 -21 -1 -38 2 -38 6 0 7 82 13
138 10 15 0 20 3 16 11 -5 9 -4 9 6 0 9 -8 29 -10 58 -6 32 4 47 2 54 -8 8
-12 9 -12 5 1 -2 9 -22 18 -51 22 -25 3 -75 16 -111 27 -35 12 -80 21 -99 21
-19 0 -38 5 -41 10 -4 6 -62 10 -143 9 -109 0 -145 -4 -177 -18z m497 -224 c7
-9 26 -21 42 -27 19 -7 26 -15 22 -26 -3 -9 -6 -20 -6 -25 0 -5 -13 -9 -29 -9
-24 0 -31 6 -47 47 -11 27 -20 51 -22 55 -6 13 28 1 40 -15z m-342 -52 l0 -65
-27 6 c-62 16 -115 67 -98 94 7 12 60 28 98 29 27 1 27 0 27 -64z m-150 21 c0
-3 -4 -8 -10 -11 -5 -3 -10 -1 -10 4 0 6 5 11 10 11 6 0 10 -2 10 -4z"/>
<path d="M6956 5821 c-4 -5 3 -7 14 -4 23 6 26 13 6 13 -8 0 -17 -4 -20 -9z"/>
<path d="M7008 5793 c6 -2 18 -2 25 0 6 3 1 5 -13 5 -14 0 -19 -2 -12 -5z"/>
<path d="M7315 5613 c7 -21 19 -39 26 -42 8 -2 17 -8 20 -13 3 -5 9 -3 12 5 3
9 -8 30 -29 51 -19 20 -36 36 -38 36 -2 0 2 -17 9 -37z"/>
<path d="M7030 5461 c0 -6 4 -13 10 -16 6 -3 7 1 4 9 -7 18 -14 21 -14 7z"/>
<path d="M2792 5302 c-20 -16 -21 -19 -8 -37 16 -22 4 -48 -17 -39 -19 7 -42
-36 -27 -50 9 -8 14 -8 17 2 10 26 25 10 21 -23 -4 -35 -4 -35 35 -35 l39 0
-8 93 c-9 119 -10 121 -52 89z"/>
<path d="M2945 5227 c-4 -10 -5 -21 -1 -24 10 -10 18 4 13 24 -4 17 -4 17 -12
0z"/>
<path d="M2900 5141 c0 -12 5 -21 10 -21 6 0 10 6 10 14 0 8 -4 18 -10 21 -5
3 -10 -3 -10 -14z"/>
<path d="M2780 5091 c0 -6 5 -13 10 -16 6 -4 10 -12 9 -18 -1 -7 -1 -21 0 -31
1 -20 1 -20 15 0 13 16 13 21 0 35 -8 8 -14 21 -14 27 0 7 -4 12 -10 12 -5 0
-10 -4 -10 -9z"/>
<path d="M2850 5010 c0 -25 4 -30 25 -30 28 0 34 23 11 46 -23 22 -36 17 -36
-16z"/>
<path d="M2881 4944 c0 -11 3 -14 6 -6 3 7 2 16 -1 19 -3 4 -6 -2 -5 -13z"/>
<path d="M2871 4464 c0 -11 3 -14 6 -6 3 7 2 16 -1 19 -3 4 -6 -2 -5 -13z"/>
<path d="M2920 4374 c0 -14 4 -23 10 -19 6 3 10 15 10 26 0 10 -4 19 -10 19
-5 0 -10 -12 -10 -26z"/>
<path d="M5687 4287 c-41 -13 -99 -56 -91 -69 3 -4 17 -8 32 -8 15 0 61 -10
102 -21 120 -33 121 -33 157 -14 27 15 33 24 33 52 0 27 -6 37 -32 53 -38 23
-138 26 -201 7z"/>
<path d="M5708 3569 c-7 -21 14 -79 27 -79 7 0 18 6 24 14 9 11 6 21 -17 46
-20 22 -31 28 -34 19z"/>
<path d="M5665 3500 c3 -5 8 -10 11 -10 2 0 4 5 4 10 0 6 -5 10 -11 10 -5 0
-7 -4 -4 -10z"/>
<path d="M5802 3484 c-7 -13 -6 -26 4 -47 16 -30 31 -31 48 -4 9 13 5 22 -15
43 -25 25 -27 25 -37 8z"/>
<path d="M6220 3187 c0 -33 39 -50 74 -34 30 14 34 37 7 37 -11 0 -23 5 -26
10 -3 6 -17 10 -31 10 -19 0 -24 -5 -24 -23z"/>
<path d="M3921 2504 c0 -11 3 -14 6 -6 3 7 2 16 -1 19 -3 4 -6 -2 -5 -13z"/>
<path d="M4295 6200 c3 -5 10 -10 16 -10 5 0 9 5 9 10 0 6 -7 10 -16 10 -8 0
-12 -4 -9 -10z"/>
<path d="M4575 4480 c28 -12 37 -12 30 0 -3 6 -16 10 -28 9 -21 0 -21 -1 -2
-9z"/>
<path d="M5810 1320 c0 -5 7 -10 15 -10 8 0 15 -5 15 -12 0 -6 2 -9 5 -6 3 3
3 13 -1 22 -7 17 -34 22 -34 6z"/>
<path d="M5808 1283 c7 -3 16 -2 19 1 4 3 -2 6 -13 5 -11 0 -14 -3 -6 -6z"/>
<path d="M5578 1123 c7 -3 16 -2 19 1 4 3 -2 6 -13 5 -11 0 -14 -3 -6 -6z"/>
<path d="M5360 650 c0 -5 5 -10 11 -10 5 0 7 5 4 10 -3 6 -8 10 -11 10 -2 0
-4 -4 -4 -10z"/>
<path d="M5448 553 c6 -2 18 -2 25 0 6 3 1 5 -13 5 -14 0 -19 -2 -12 -5z"/>
</g>
</svg>
